<svg xmlns="http://www.w3.org/2000/svg" version="1.1" xmlns:xlink="http://www.w3.org/1999/xlink" xmlns:svgjs="http://svgjs.dev/svgjs" width="1000" height="1000" viewBox="0 0 1000 1000"><rect width="1000" height="1000" fill="#c8c8c8"></rect><g transform="matrix(0.7,0,0,0.7,149.57576650686332,282.1265587044535)"><svg viewBox="0 0 396 247" data-background-color="#c8c8c8" preserveAspectRatio="xMidYMid meet" height="623" width="1000" xmlns="http://www.w3.org/2000/svg" xmlns:xlink="http://www.w3.org/1999/xlink"><defs></defs><g id="tight-bounds" transform="matrix(1,0,0,1,0.239994951657593,-0.09999999999999432)"><svg viewBox="0 0 395.52 247.2" height="247.2" width="395.52"><g><svg></svg></g><g><svg viewBox="0 0 395.52 247.2" height="247.2" width="395.52"><g><path d="M91.371 7.938h36.419l29.381 75.206-34.742 0-13.523-35.415h-2.023l-13.63 35.415-31.263 0zM218.161 239.262h-35.744l-19.558-50.244h-110.604l-19.22 50.244h-32.035l29.381-75.206 158.399 0zM250.533 7.938h33.046v75.206h-33.046zM283.579 209.25h106.22l4.721 30.012h-143.987l0-75.206 33.046 0z" fill="#000000" data-fill-palette-color="tertiary"></path></g><g transform="matrix(1,0,0,1,0,92.28397628182769)"><svg viewBox="0 0 395.52 62.6320474363446" height="62.6320474363446" width="395.52"><g><svg viewBox="0 0 395.52 62.6320474363446" height="62.6320474363446" width="395.52"><g><svg viewBox="0 0 395.52 62.6320474363446" height="62.6320474363446" width="395.52"><g><svg viewBox="0 0 395.52 62.6320474363446" height="62.6320474363446" width="395.52"><g><svg viewBox="0 0 395.52 62.6320474363446" height="62.6320474363446" width="395.52"><g><svg viewBox="0 0 395.52 62.6320474363446" height="62.6320474363446" width="395.52"><g transform="matrix(1,0,0,1,0,0)"><svg width="395.52" viewBox="0.20000000298023224 -36 286.67999267578125 45.400001525878906" height="62.6320474363446" data-palette-color="#000000"><path d="M13.6-34.3L19-34.3 32.4 0 27.1 0 24.2-7.45 7.8-7.45 4.95 0 0.2 0 13.6-34.3ZM22.5-11.9L16.2-28.4 15.9-28.4 9.55-11.9 22.5-11.9ZM36.65-36L41.55-36 41.55-31.65 36.65-31.65 36.65-36ZM41.45-25.55L41.45 0.75Q41.45 5.3 40.05 7.3 38.65 9.3 35.2 9.3L35.2 9.3Q32.6 9.3 30.9 8.35L30.9 8.35 30.9 4.85Q32.55 5.6 33.5 5.6L33.5 5.6Q35.35 5.6 36.05 4.83 36.75 4.05 36.75 2.2L36.75 2.2 36.75-25.55 41.45-25.55ZM59.2-34.3L64.59-34.3 78 0 72.7 0 69.8-7.45 53.4-7.45 50.55 0 45.8 0 59.2-34.3ZM68.09-11.9L61.8-28.4 61.5-28.4 55.15-11.9 68.09-11.9ZM94.99-34.3L99.89-34.3 99.89-4.45 115.64-4.45 116.34 0 94.99 0 94.99-34.3ZM131.54-26.05Q136.89-26.05 140.09-22.75 143.29-19.45 143.29-13.7L143.29-13.7 143.29-11.85Q143.29-6.1 140.14-2.8 136.99 0.5 131.54 0.5L131.54 0.5Q126.09 0.5 122.94-2.8 119.79-6.1 119.79-11.85L119.79-11.85 119.79-13.7Q119.79-19.45 122.99-22.75 126.19-26.05 131.54-26.05L131.54-26.05ZM131.54-22.3Q128.19-22.3 126.34-20 124.49-17.7 124.49-13.25L124.49-13.25 124.49-12.3Q124.49-7.95 126.31-5.6 128.14-3.25 131.54-3.25L131.54-3.25Q134.84-3.25 136.71-5.58 138.59-7.9 138.59-12.3L138.59-12.3 138.59-13.25Q138.59-17.6 136.76-19.95 134.94-22.3 131.54-22.3L131.54-22.3ZM171.39-25.55L171.39-5Q171.39-4.1 171.79-3.68 172.19-3.25 172.79-3.25L172.79-3.25Q173.89-3.25 175.04-3.95L175.04-3.95 175.04-0.5Q173.49 0.5 171.89 0.5L171.89 0.5Q169.19 0.5 168.11-0.6 167.04-1.7 166.94-3.7L166.94-3.7Q165.59-1.7 163.46-0.6 161.34 0.5 158.59 0.5L158.59 0.5Q154.74 0.5 152.26-1.78 149.79-4.05 149.79-8.35L149.79-8.35 149.79-25.55 154.49-25.55 154.49-9.2Q154.49-3.25 159.89-3.25L159.89-3.25Q161.64-3.25 163.21-4.2 164.79-5.15 165.74-6.78 166.69-8.4 166.69-10.35L166.69-10.35 166.69-25.55 171.39-25.55ZM193.53-26.05Q197.73-26.05 200.13-23.8 202.53-21.55 202.53-17.2L202.53-17.2 202.53 0 197.83 0 197.83-16.35Q197.83-22.3 192.43-22.3L192.43-22.3Q190.63-22.3 189.08-21.35 187.53-20.4 186.58-18.78 185.63-17.15 185.63-15.2L185.63-15.2 185.63 0 180.93 0 180.93-25.55 184.33-25.55 184.98-21.8Q188.18-26.05 193.53-26.05L193.53-26.05ZM233.98-30.15Q233.98-27.6 232.63-25.88 231.28-24.15 228.88-23.65L228.88-23.65 228.78-23.5Q231.28-21.3 231.28-18L231.28-18Q231.28-14.4 228.58-12.2 225.88-10 221.23-10L221.23-10 217.83-10Q216.33-10 215.33-9.22 214.33-8.45 214.33-7.25L214.33-7.25Q214.33-6.05 215.28-5.35 216.23-4.65 217.83-4.65L217.83-4.65 227.48-4.65Q230.43-4.65 232.21-2.8 233.98-0.95 233.98 1.9L233.98 1.9Q233.98 5.3 231.41 7.35 228.83 9.4 224.48 9.4L224.48 9.4 214.43 9.4Q212.73 9.4 211.31 8.5 209.88 7.6 209.06 6.23 208.23 4.85 208.23 3.4L208.23 3.4Q208.23 1.3 209.26-0.25 210.28-1.8 211.98-2.55L211.98-2.55Q209.68-3.95 209.68-6.7L209.68-6.7Q209.68-8.5 210.73-9.8 211.78-11.1 213.68-11.75L213.68-11.75Q210.33-13.6 210.33-18L210.33-18Q210.33-21.7 213.06-23.88 215.78-26.05 220.63-26.05L220.63-26.05 220.83-26.05Q223.63-26.05 225.93-25.2L225.93-25.2Q229.48-26.95 229.98-30.15L229.98-30.15 233.98-30.15ZM220.78-22.3Q218.13-22.3 216.56-21.28 214.98-20.25 214.98-18L214.98-18Q214.98-15.75 216.56-14.75 218.13-13.75 220.78-13.75L220.78-13.75Q223.43-13.75 225.03-14.75 226.63-15.75 226.63-18L226.63-18Q226.63-20.25 225.03-21.28 223.43-22.3 220.78-22.3L220.78-22.3ZM226.08-0.15L215.78-0.15Q214.58-0.15 213.73 0.7 212.88 1.55 212.88 2.75L212.88 2.75Q212.88 3.95 213.73 4.8 214.58 5.65 215.78 5.65L215.78 5.65 225.43 5.65Q227.03 5.65 228.18 4.73 229.33 3.8 229.33 2.6L229.33 2.6Q229.33 1.35 228.48 0.6 227.63-0.15 226.08-0.15L226.08-0.15ZM249.23-26.05Q252.38-26.05 254.8-24.73 257.23-23.4 258.58-20.95 259.93-18.5 259.93-15.25L259.93-15.25 259.93-11.7 242.08-11.7Q242.18-7.65 243.98-5.45 245.78-3.25 249.33-3.25L249.33-3.25Q252.48-3.25 253.98-5.1 255.48-6.95 255.48-9.5L255.48-9.5 259.93-9.5Q259.93-6.5 258.55-4.25 257.18-2 254.75-0.75 252.33 0.5 249.23 0.5L249.23 0.5 249.03 0.5Q243.63 0.5 240.5-2.98 237.38-6.45 237.38-12.25L237.38-12.25 237.38-13.25Q237.38-17.05 238.78-19.95 240.18-22.85 242.78-24.45 245.38-26.05 248.88-26.05L248.88-26.05 249.23-26.05ZM248.98-22.3Q246.13-22.3 244.35-20.55 242.58-18.8 242.18-15.35L242.18-15.35 255.28-15.35 255.28-15.95Q255.28-18.8 253.55-20.55 251.83-22.3 248.98-22.3L248.98-22.3ZM276.53-26.05Q279.38-26.05 281.6-25.15 283.83-24.25 285.05-22.65 286.28-21.05 286.28-19.1L286.28-19.1 286.23-18.2 281.58-18.2 281.58-18.65Q281.58-22.3 275.93-22.3L275.93-22.3Q270.33-22.3 270.33-18.95L270.33-18.95Q270.33-17.4 271.93-16.68 273.53-15.95 276.83-15.3L276.83-15.3Q279.98-14.65 282-13.95 284.03-13.25 285.45-11.75 286.88-10.25 286.88-7.7L286.88-7.7Q286.88-3.6 284.08-1.55 281.28 0.5 276.03 0.5L276.03 0.5 275.28 0.5Q272.13 0.5 269.78-0.48 267.43-1.45 266.15-3.13 264.88-4.8 264.93-6.9L264.93-6.9 264.93-8 269.58-8 269.58-7.5Q269.58-3.25 276.73-3.25L276.73-3.25Q278.83-3.25 280.5-4.2 282.18-5.15 282.18-6.8L282.18-6.8Q282.18-8.2 281.25-9 280.33-9.8 278.98-10.2 277.63-10.6 275.23-11L275.23-11Q272.13-11.6 270.23-12.23 268.33-12.85 266.98-14.35 265.63-15.85 265.63-18.45L265.63-18.45Q265.63-22 268.43-24.03 271.23-26.05 276.08-26.05L276.08-26.05 276.53-26.05Z" opacity="1" transform="matrix(1,0,0,1,0,0)" fill="#000000" class="undefined-text-0" data-fill-palette-color="primary" id="text-0"></path></svg></g></svg></g></svg></g></svg></g><g></g></svg></g></svg></g></svg></g></svg></g></svg><rect width="395.52" height="247.2" fill="none" stroke="none" visibility="hidden"></rect></g></svg></g></svg>